<svg width="24" height="24" viewBox="0 0 24 24" fill="none" xmlns="http://www.w3.org/2000/svg">
<path fill-rule="evenodd" clip-rule="evenodd" d="M18 10.5C18.7956 10.5 19.5587 10.8161 20.1213 11.3787C20.6839 11.9413 21 12.7044 21 13.5V19.5C21 20.2956 20.6839 21.0587 20.1213 21.6213C19.5587 22.1839 18.7956 22.5 18 22.5H6C5.20435 22.5 4.44129 22.1839 3.87868 21.6213C3.31607 21.0587 3 20.2956 3 19.5V13.5C3 12.7044 3.31607 11.9413 3.87868 11.3787C4.44129 10.8161 5.20435 10.5 6 10.5V7.5C6 5.9087 6.63214 4.38258 7.75736 3.25736C8.88258 2.13214 10.4087 1.5 12 1.5C13.5913 1.5 15.1174 2.13214 16.2426 3.25736C17.3679 4.38258 18 5.9087 18 7.5V10.5ZM12 3.5C13.0609 3.5 14.0783 3.92143 14.8284 4.67157C15.5786 5.42172 16 6.43913 16 7.5V10.5H8V7.5C8 6.43913 8.42143 5.42172 9.17157 4.67157C9.92172 3.92143 10.9391 3.5 12 3.5ZM18 12.5H6C5.73478 12.5 5.48043 12.6054 5.29289 12.7929C5.10536 12.9804 5 13.2348 5 13.5V19.5C5 19.7652 5.10536 20.0196 5.29289 20.2071C5.48043 20.3946 5.73478 20.5 6 20.5H18C18.2652 20.5 18.5196 20.3946 18.7071 20.2071C18.8946 20.0196 19 19.7652 19 19.5V13.5C19 13.2348 18.8946 12.9804 18.7071 12.7929C18.5196 12.6054 18.2652 12.5 18 12.5Z" fill="#6A6AFF"/>
</svg>
