<svg width="24" height="24" viewBox="0 0 24 24" fill="none" xmlns="http://www.w3.org/2000/svg">
<path d="M18 9C18.6091 9.00002 19.2039 8.8146 19.7051 8.4684C20.2063 8.1222 20.5902 7.63162 20.8059 7.06191C21.0215 6.49219 21.0586 5.87034 20.9122 5.27904C20.7658 4.68774 20.4428 4.15501 19.9863 3.7517C19.5298 3.34839 18.9613 3.09362 18.3565 3.02125C17.7516 2.94888 17.1391 3.06235 16.6003 3.34658C16.0615 3.6308 15.6221 4.0723 15.3403 4.61238C15.0585 5.15245 14.9479 5.7655 15.023 6.37L8.08299 9.84C7.65922 9.43136 7.12459 9.15642 6.54568 9.04945C5.96678 8.94247 5.3692 9.00819 4.82737 9.2384C4.28555 9.46862 3.82344 9.85317 3.4986 10.3441C3.17376 10.8351 3.00055 11.4108 3.00055 11.9995C3.00055 12.5882 3.17376 13.1639 3.4986 13.6549C3.82344 14.1458 4.28555 14.5304 4.82737 14.7606C5.3692 14.9908 5.96678 15.0565 6.54568 14.9496C7.12459 14.8426 7.65922 14.5676 8.08299 14.159L15.023 17.629C14.9355 18.3312 15.0991 19.0418 15.4848 19.6351C15.8705 20.2284 16.4535 20.6663 17.1309 20.8713C17.8082 21.0763 18.5362 21.0353 19.1862 20.7555C19.8362 20.4757 20.3663 19.9751 20.683 19.3422C20.9996 18.7093 21.0823 17.9849 20.9164 17.2969C20.7506 16.6089 20.3469 16.0017 19.7767 15.5826C19.2064 15.1635 18.5064 14.9595 17.8003 15.0066C17.0942 15.0537 16.4275 15.3489 15.918 15.84L8.97799 12.37C9.00822 12.1243 9.00822 11.8757 8.97799 11.63L15.918 8.16C16.456 8.68 17.19 9 18 9Z" fill="#6A6AFF" fill-opacity="0.85"/>
</svg>
